<mxfile host="Electron" modified="2024-06-25T14:15:57.874Z" agent="Mozilla/5.0 (Windows NT 10.0; Win64; x64) AppleWebKit/537.36 (KHTML, like Gecko) draw.io/24.6.1 Chrome/124.0.6367.207 Electron/30.0.6 Safari/537.36" etag="cHXWLSfL9KOE7JA-vb5Z" version="24.6.1" type="device">
  <diagram name="Page-1" id="cErAeMFUGRWjvStPKnAX">
    <mxGraphModel dx="2390" dy="1395" grid="1" gridSize="10" guides="1" tooltips="1" connect="1" arrows="1" fold="1" page="1" pageScale="1" pageWidth="1000" pageHeight="600" math="0" shadow="0">
      <root>
        <mxCell id="0" />
        <mxCell id="1" parent="0" />
        <mxCell id="ZP8aZX7HzMWhXCSV01K_-3" style="edgeStyle=orthogonalEdgeStyle;rounded=0;orthogonalLoop=1;jettySize=auto;html=1;exitX=1;exitY=0.5;exitDx=0;exitDy=0;entryX=0;entryY=0.5;entryDx=0;entryDy=0;" edge="1" parent="1" source="ZP8aZX7HzMWhXCSV01K_-1" target="ZP8aZX7HzMWhXCSV01K_-2">
          <mxGeometry relative="1" as="geometry" />
        </mxCell>
        <mxCell id="ZP8aZX7HzMWhXCSV01K_-4" value="ДАННЫЕ&amp;nbsp;&lt;div&gt;О ВОРКЕРАХ&lt;/div&gt;" style="edgeLabel;html=1;align=center;verticalAlign=middle;resizable=0;points=[];" vertex="1" connectable="0" parent="ZP8aZX7HzMWhXCSV01K_-3">
          <mxGeometry x="-0.0167" relative="1" as="geometry">
            <mxPoint as="offset" />
          </mxGeometry>
        </mxCell>
        <mxCell id="ZP8aZX7HzMWhXCSV01K_-1" value="Микросервис&lt;div&gt;НАЙМ ВОРКЕРОВ&lt;/div&gt;" style="swimlane;whiteSpace=wrap;html=1;rounded=1;startSize=30;" vertex="1" parent="1">
          <mxGeometry x="40" y="220" width="200" height="120" as="geometry" />
        </mxCell>
        <mxCell id="ZP8aZX7HzMWhXCSV01K_-10" style="edgeStyle=orthogonalEdgeStyle;rounded=0;orthogonalLoop=1;jettySize=auto;html=1;exitX=0.5;exitY=1;exitDx=0;exitDy=0;entryX=0.5;entryY=0;entryDx=0;entryDy=0;" edge="1" parent="1" source="ZP8aZX7HzMWhXCSV01K_-2" target="ZP8aZX7HzMWhXCSV01K_-8">
          <mxGeometry relative="1" as="geometry" />
        </mxCell>
        <mxCell id="ZP8aZX7HzMWhXCSV01K_-11" value="ДАННЫЕ О СОЗДАННЫХ ЗАДАЧАХ" style="edgeLabel;html=1;align=center;verticalAlign=middle;resizable=0;points=[];" vertex="1" connectable="0" parent="ZP8aZX7HzMWhXCSV01K_-10">
          <mxGeometry x="-0.0333" relative="1" as="geometry">
            <mxPoint as="offset" />
          </mxGeometry>
        </mxCell>
        <mxCell id="ZP8aZX7HzMWhXCSV01K_-13" style="edgeStyle=orthogonalEdgeStyle;rounded=0;orthogonalLoop=1;jettySize=auto;html=1;exitX=1;exitY=0.5;exitDx=0;exitDy=0;entryX=0;entryY=0.5;entryDx=0;entryDy=0;" edge="1" parent="1" source="ZP8aZX7HzMWhXCSV01K_-2" target="ZP8aZX7HzMWhXCSV01K_-12">
          <mxGeometry relative="1" as="geometry" />
        </mxCell>
        <mxCell id="ZP8aZX7HzMWhXCSV01K_-15" value="ДАННЫЕ&lt;div&gt;О СОЗДАННЫХ ЗАДАЧАХ&lt;/div&gt;" style="edgeLabel;html=1;align=center;verticalAlign=middle;resizable=0;points=[];" vertex="1" connectable="0" parent="ZP8aZX7HzMWhXCSV01K_-13">
          <mxGeometry relative="1" as="geometry">
            <mxPoint as="offset" />
          </mxGeometry>
        </mxCell>
        <mxCell id="ZP8aZX7HzMWhXCSV01K_-2" value="Микросервис&lt;div&gt;МЭТЧИНГ&lt;/div&gt;" style="swimlane;whiteSpace=wrap;html=1;rounded=1;startSize=30;" vertex="1" parent="1">
          <mxGeometry x="360" y="220" width="200" height="120" as="geometry" />
        </mxCell>
        <mxCell id="ZP8aZX7HzMWhXCSV01K_-6" style="edgeStyle=orthogonalEdgeStyle;rounded=0;orthogonalLoop=1;jettySize=auto;html=1;exitX=0.5;exitY=1;exitDx=0;exitDy=0;entryX=0.5;entryY=0;entryDx=0;entryDy=0;" edge="1" parent="1" source="ZP8aZX7HzMWhXCSV01K_-5" target="ZP8aZX7HzMWhXCSV01K_-2">
          <mxGeometry relative="1" as="geometry" />
        </mxCell>
        <mxCell id="ZP8aZX7HzMWhXCSV01K_-7" value="ДАННЫЕ О КЛИЕНТАХ И ЗАЯВКАХ" style="edgeLabel;html=1;align=center;verticalAlign=middle;resizable=0;points=[];" vertex="1" connectable="0" parent="ZP8aZX7HzMWhXCSV01K_-6">
          <mxGeometry x="-0.1" y="-1" relative="1" as="geometry">
            <mxPoint as="offset" />
          </mxGeometry>
        </mxCell>
        <mxCell id="ZP8aZX7HzMWhXCSV01K_-5" value="Микросервис&lt;div&gt;КЛИЕНТСКИЙ ДАШБОРД&lt;/div&gt;" style="swimlane;whiteSpace=wrap;html=1;rounded=1;startSize=30;" vertex="1" parent="1">
          <mxGeometry x="360" y="40" width="200" height="120" as="geometry" />
        </mxCell>
        <mxCell id="ZP8aZX7HzMWhXCSV01K_-8" value="Микросервис&lt;div&gt;СНАБЖЕНИЕ&lt;/div&gt;" style="swimlane;whiteSpace=wrap;html=1;rounded=1;startSize=30;" vertex="1" parent="1">
          <mxGeometry x="360" y="400" width="200" height="120" as="geometry" />
        </mxCell>
        <mxCell id="ZP8aZX7HzMWhXCSV01K_-16" style="rounded=0;orthogonalLoop=1;jettySize=auto;html=1;exitX=0;exitY=0;exitDx=0;exitDy=0;entryX=1;entryY=1;entryDx=0;entryDy=0;" edge="1" parent="1" source="ZP8aZX7HzMWhXCSV01K_-12" target="ZP8aZX7HzMWhXCSV01K_-5">
          <mxGeometry relative="1" as="geometry" />
        </mxCell>
        <mxCell id="ZP8aZX7HzMWhXCSV01K_-17" value="ДАННЫЕ О ЗАДАЧАХ,&lt;div&gt;СПИСАНИЯХ ЗА НИХ&lt;/div&gt;" style="edgeLabel;html=1;align=center;verticalAlign=middle;resizable=0;points=[];" vertex="1" connectable="0" parent="ZP8aZX7HzMWhXCSV01K_-16">
          <mxGeometry x="0.0147" y="-2" relative="1" as="geometry">
            <mxPoint as="offset" />
          </mxGeometry>
        </mxCell>
        <mxCell id="ZP8aZX7HzMWhXCSV01K_-19" style="edgeStyle=orthogonalEdgeStyle;rounded=0;orthogonalLoop=1;jettySize=auto;html=1;exitX=0.5;exitY=0;exitDx=0;exitDy=0;entryX=0.5;entryY=1;entryDx=0;entryDy=0;" edge="1" parent="1" source="ZP8aZX7HzMWhXCSV01K_-12" target="ZP8aZX7HzMWhXCSV01K_-18">
          <mxGeometry relative="1" as="geometry" />
        </mxCell>
        <mxCell id="ZP8aZX7HzMWhXCSV01K_-20" value="ДАННЫЕ О ЗАДАЧАХ" style="edgeLabel;html=1;align=center;verticalAlign=middle;resizable=0;points=[];" vertex="1" connectable="0" parent="ZP8aZX7HzMWhXCSV01K_-19">
          <mxGeometry x="-0.0333" relative="1" as="geometry">
            <mxPoint as="offset" />
          </mxGeometry>
        </mxCell>
        <mxCell id="ZP8aZX7HzMWhXCSV01K_-22" style="edgeStyle=orthogonalEdgeStyle;rounded=0;orthogonalLoop=1;jettySize=auto;html=1;exitX=0.5;exitY=1;exitDx=0;exitDy=0;entryX=0.5;entryY=0;entryDx=0;entryDy=0;" edge="1" parent="1" source="ZP8aZX7HzMWhXCSV01K_-12" target="ZP8aZX7HzMWhXCSV01K_-21">
          <mxGeometry relative="1" as="geometry" />
        </mxCell>
        <mxCell id="ZP8aZX7HzMWhXCSV01K_-23" value="ДАННЫЕ О ЗАДАЧАХ" style="edgeLabel;html=1;align=center;verticalAlign=middle;resizable=0;points=[];" vertex="1" connectable="0" parent="ZP8aZX7HzMWhXCSV01K_-22">
          <mxGeometry x="-0.049" y="-2" relative="1" as="geometry">
            <mxPoint as="offset" />
          </mxGeometry>
        </mxCell>
        <mxCell id="ZP8aZX7HzMWhXCSV01K_-12" value="Микросервис&lt;div&gt;ВЫПОЛНЕНИЕ ЗАДАЧ&lt;/div&gt;" style="swimlane;whiteSpace=wrap;html=1;rounded=1;startSize=30;" vertex="1" parent="1">
          <mxGeometry x="760" y="220" width="200" height="120" as="geometry" />
        </mxCell>
        <mxCell id="ZP8aZX7HzMWhXCSV01K_-18" value="Микросервис&lt;div&gt;ТОТАЛИЗАТОР&lt;/div&gt;" style="swimlane;whiteSpace=wrap;html=1;rounded=1;startSize=30;" vertex="1" parent="1">
          <mxGeometry x="760" y="40" width="200" height="120" as="geometry" />
        </mxCell>
        <mxCell id="ZP8aZX7HzMWhXCSV01K_-24" style="edgeStyle=orthogonalEdgeStyle;rounded=0;orthogonalLoop=1;jettySize=auto;html=1;exitX=0.5;exitY=1;exitDx=0;exitDy=0;entryX=0.5;entryY=1;entryDx=0;entryDy=0;" edge="1" parent="1" source="ZP8aZX7HzMWhXCSV01K_-21" target="ZP8aZX7HzMWhXCSV01K_-1">
          <mxGeometry relative="1" as="geometry">
            <Array as="points">
              <mxPoint x="860" y="560" />
              <mxPoint x="140" y="560" />
            </Array>
          </mxGeometry>
        </mxCell>
        <mxCell id="ZP8aZX7HzMWhXCSV01K_-25" value="ДАННЫЕ О ГИПОТЕЗАХ" style="edgeLabel;html=1;align=center;verticalAlign=middle;resizable=0;points=[];" vertex="1" connectable="0" parent="ZP8aZX7HzMWhXCSV01K_-24">
          <mxGeometry x="-0.1861" relative="1" as="geometry">
            <mxPoint as="offset" />
          </mxGeometry>
        </mxCell>
        <mxCell id="ZP8aZX7HzMWhXCSV01K_-21" value="Микросервис&lt;div&gt;КОНТРОЛЬ КАЧЕСТВА&lt;/div&gt;" style="swimlane;whiteSpace=wrap;html=1;rounded=1;startSize=30;" vertex="1" parent="1">
          <mxGeometry x="760" y="400" width="200" height="120" as="geometry" />
        </mxCell>
      </root>
    </mxGraphModel>
  </diagram>
</mxfile>
